<?xml version="1.0" standalone="no"?>
<!DOCTYPE svg PUBLIC "-//W3C//DTD SVG 20010904//EN"
 "http://www.w3.org/TR/2001/REC-SVG-20010904/DTD/svg10.dtd">
<svg version="1.0" xmlns="http://www.w3.org/2000/svg"
 width="256.000000pt" height="256.000000pt" viewBox="0 0 256.000000 256.000000"
 preserveAspectRatio="xMidYMid meet">
<metadata>
Created by potrace 1.11, written by Peter Selinger 2001-2013
</metadata>
<g transform="translate(0.000000,256.000000) scale(0.100000,-0.100000)"
fill="#000000" stroke="none">
<path d="M59 2063 c-35 -33 -59 -64 -59 -77 0 -14 102 -123 312 -333 l313
-313 -313 -313 c-210 -210 -312 -319 -312 -333 0 -23 109 -134 131 -134 8 0
183 170 391 377 299 298 378 383 378 403 0 20 -79 105 -378 403 -208 207 -383
377 -391 377 -7 0 -39 -25 -72 -57z"/>
<path d="M992 634 c-19 -13 -22 -24 -22 -89 0 -65 3 -76 22 -89 34 -24 1512
-24 1546 0 19 13 22 24 22 88 0 58 -4 76 -18 89 -17 16 -85 17 -773 17 -667 0
-757 -2 -777 -16z"/>
</g>
</svg>
